<?xml version="1.0" encoding="UTF-8"?>
<svg xmlns="http://www.w3.org/2000/svg" width="1024" height="1024" viewBox="0 0 1024 1024">
<rect width="1024" height="1024" fill="#0a0a14"/>

    <defs>
      <radialGradient id="glow" cx="50%" cy="50%" r="50%">
        <stop offset="0%" stop-color="#2563eb" stop-opacity="0.35"/>
        <stop offset="55%" stop-color="#2563eb" stop-opacity="0.08"/>
        <stop offset="100%" stop-color="#0a0a14" stop-opacity="0"/>
      </radialGradient>
      <radialGradient id="coreGlow" cx="50%" cy="50%" r="50%">
        <stop offset="0%" stop-color="#f5c542" stop-opacity="0.9"/>
        <stop offset="40%" stop-color="#6b9fff" stop-opacity="0.55"/>
        <stop offset="100%" stop-color="#2563eb" stop-opacity="0"/>
      </radialGradient>
    </defs>
  
<circle cx="512" cy="512" r="447.49" fill="url(#glow)"/>
<circle cx="828.39" cy="102.43" r="5.65" fill="#e8e8f4" opacity="0.68"/>
<circle cx="296.53" cy="132.28" r="3.35" fill="#e8e8f4" opacity="0.57"/>
<circle cx="94.26" cy="512.85" r="4.00" fill="#e8e8f4" opacity="0.28"/>
<circle cx="330.56" cy="86.94" r="5.67" fill="#e8e8f4" opacity="0.37"/>
<circle cx="933.18" cy="291.75" r="4.33" fill="#e8e8f4" opacity="0.73"/>
<circle cx="905.01" cy="381.82" r="6.06" fill="#e8e8f4" opacity="0.74"/>
<circle cx="769.81" cy="837.92" r="3.14" fill="#e8e8f4" opacity="0.76"/>
<circle cx="420.37" cy="950.76" r="6.67" fill="#e8e8f4" opacity="0.40"/>
<circle cx="668.73" cy="68.67" r="6.78" fill="#e8e8f4" opacity="0.30"/>
<circle cx="206.19" cy="786.52" r="3.13" fill="#e8e8f4" opacity="0.33"/>
<circle cx="648.33" cy="103.87" r="6.92" fill="#e8e8f4" opacity="0.42"/>
<circle cx="874.41" cy="169.80" r="7.00" fill="#e8e8f4" opacity="0.55"/>
<circle cx="127.03" cy="834.54" r="6.17" fill="#e8e8f4" opacity="0.46"/>
<circle cx="194.59" cy="936.58" r="5.27" fill="#e8e8f4" opacity="0.52"/>
<circle cx="932.66" cy="367.52" r="4.98" fill="#e8e8f4" opacity="0.65"/>
<circle cx="152.28" cy="785.92" r="4.53" fill="#e8e8f4" opacity="0.27"/>
<circle cx="155.08" cy="739.08" r="6.00" fill="#e8e8f4" opacity="0.38"/>
<circle cx="223.60" cy="127.71" r="4.68" fill="#e8e8f4" opacity="0.30"/>
<circle cx="175.08" cy="181.23" r="6.26" fill="#e8e8f4" opacity="0.61"/>
<circle cx="232.33" cy="163.48" r="5.44" fill="#e8e8f4" opacity="0.73"/>
<circle cx="512" cy="512" r="389.12" fill="none" stroke="#3a3a6a" stroke-width="12.29"/>
<circle cx="512" cy="512" r="280.17" fill="none" stroke="#26263a" stroke-width="10.44"/>
<circle cx="512" cy="512" r="163.43" fill="none" stroke="#3a3a6a" stroke-width="9.22"/>
<line x1="512.00" y1="193.70" x2="512.00" y2="122.88" stroke="#6b9fff" stroke-width="14.13" stroke-linecap="round" opacity="0.95"/>
<line x1="671.15" y1="236.34" x2="706.56" y2="175.01" stroke="#3a3a6a" stroke-width="8.60" stroke-linecap="round" opacity="0.65"/>
<line x1="787.66" y1="352.85" x2="848.99" y2="317.44" stroke="#3a3a6a" stroke-width="8.60" stroke-linecap="round" opacity="0.65"/>
<line x1="830.30" y1="512.00" x2="901.12" y2="512.00" stroke="#6b9fff" stroke-width="14.13" stroke-linecap="round" opacity="0.95"/>
<line x1="787.66" y1="671.15" x2="848.99" y2="706.56" stroke="#3a3a6a" stroke-width="8.60" stroke-linecap="round" opacity="0.65"/>
<line x1="671.15" y1="787.66" x2="706.56" y2="848.99" stroke="#3a3a6a" stroke-width="8.60" stroke-linecap="round" opacity="0.65"/>
<line x1="512.00" y1="830.30" x2="512.00" y2="901.12" stroke="#6b9fff" stroke-width="14.13" stroke-linecap="round" opacity="0.95"/>
<line x1="352.85" y1="787.66" x2="317.44" y2="848.99" stroke="#3a3a6a" stroke-width="8.60" stroke-linecap="round" opacity="0.65"/>
<line x1="236.34" y1="671.15" x2="175.01" y2="706.56" stroke="#3a3a6a" stroke-width="8.60" stroke-linecap="round" opacity="0.65"/>
<line x1="193.70" y1="512.00" x2="122.88" y2="512.00" stroke="#6b9fff" stroke-width="14.13" stroke-linecap="round" opacity="0.95"/>
<line x1="236.34" y1="352.85" x2="175.01" y2="317.44" stroke="#3a3a6a" stroke-width="8.60" stroke-linecap="round" opacity="0.65"/>
<line x1="352.85" y1="236.34" x2="317.44" y2="175.01" stroke="#3a3a6a" stroke-width="8.60" stroke-linecap="round" opacity="0.65"/>
<line x1="512.00" y1="901.12" x2="512.00" y2="659.09" stroke="#6b9fff" stroke-width="17.20" stroke-linecap="round"/>
<circle cx="580.54" cy="301.06" r="14.34" fill="#f5c542"/>
<circle cx="580.54" cy="301.06" r="31.54" fill="none" stroke="#f5c542" stroke-width="5.53" opacity="0.55"/>
<circle cx="725.21" cy="450.86" r="14.34" fill="#c8d0e8"/>
<circle cx="676.83" cy="660.41" r="14.34" fill="#e8e8f4"/>
<circle cx="418.26" cy="713.02" r="14.34" fill="#e8e8f4"/>
<circle cx="290.34" cy="519.74" r="14.34" fill="#e8e8f4"/>
<circle cx="384.78" cy="330.31" r="14.34" fill="#e8e8f4"/>
<circle cx="512" cy="512" r="136.97" fill="url(#coreGlow)"/>
<circle cx="512" cy="512" r="62.26" fill="#0a0a14" stroke="#6b9fff" stroke-width="12.29"/>
<circle cx="512" cy="512" r="26.15" fill="#f5c542"/>
</svg>